PathFileType	4	(X/Y/Z)	..\data\2014019\dynamic\2014019_C5_03.trc
DataRate	CameraRate	NumFrames	NumMarkers	Units	OrigDataRate	OrigDataStartFrame	OrigNumFrames
100.000000	100.000000	4	52	mm	100.000000	71	142
Frame#	Time	L_IAS			L_IPS			R_IPS			R_IAS			L_FTC			L_FLE			L_FME			L_FAX			L_TTC			L_FAL			L_TAM			L_FCC			L_FM1			L_FM2			L_FM5			R_FTC			R_FLE			R_FME			R_FAX			R_TTC			R_FAL			R_TAM			R_FCC			R_FM1			R_FM2			R_FM5			CV7			TV10			SXS			SJN			L_SIA			L_SRS			L_SAA			L_SAE			L_HLE			L_HME			L_UOA			L_RSP			L_UHE			L_HM2			L_HM5			R_SIA			R_SRS			R_SAA			R_SAE			R_HLE			R_HME			R_UOA			R_RSP			R_UHE			R_HM2			R_HM5			
		X1	Y1	Z1	X2	Y2	Z2	X3	Y3	Z3	X4	Y4	Z4	X5	Y5	Z5	X6	Y6	Z6	X7	Y7	Z7	X8	Y8	Z8	X9	Y9	Z9	X10	Y10	Z10	X11	Y11	Z11	X12	Y12	Z12	X13	Y13	Z13	X14	Y14	Z14	X15	Y15	Z15	X16	Y16	Z16	X17	Y17	Z17	X18	Y18	Z18	X19	Y19	Z19	X20	Y20	Z20	X21	Y21	Z21	X22	Y22	Z22	X23	Y23	Z23	X24	Y24	Z24	X25	Y25	Z25	X26	Y26	Z26	X27	Y27	Z27	X28	Y28	Z28	X29	Y29	Z29	X30	Y30	Z30	X31	Y31	Z31	X32	Y32	Z32	X33	Y33	Z33	X34	Y34	Z34	X35	Y35	Z35	X36	Y36	Z36	X37	Y37	Z37	X38	Y38	Z38	X39	Y39	Z39	X40	Y40	Z40	X41	Y41	Z41	X42	Y42	Z42	X43	Y43	Z43	X44	Y44	Z44	X45	Y45	Z45	X46	Y46	Z46	X47	Y47	Z47	X48	Y48	Z48	X49	Y49	Z49	X50	Y50	Z50	X51	Y51	Z51	X52	Y52	Z52	

72	0.71	-112.9232025146485	944.068054199219	113.1920166015625	-313.3800354003907	1001.274536132813	206.1622467041016	-311.4536743164064	1001.130493164063	301.9629516601562	-101.7853469848634	952.3736572265627	346.0505371093751	-202.3516082763672	876.8604125976565	42.58958053588866	-48.39252853393557	490.9575195312501	68.59556579589845	-33.67481231689457	473.4934082031251	203.2241363525391	-88.56005859375003	446.7499389648439	69.3533935546875	-35.20485687255862	408.633026123047	108.6210250854492	-301.9505004882813	174.8345642089844	122.693000793457	-243.8185424804688	166.9202117919922	200.0186004638672	-349.1308288574219	152.5023193359375	177.0406188964843	-190.0735626220704	46.43785858154298	176.3838348388672	-182.0298156738282	60.79525375366212	121.0050735473633	-226.4147033691407	65.55493164062501	80.38055419921874	-201.7160034179689	873.5413818359377	442.7241821289064	-189.7545471191407	462.0072631835939	358.8941650390626	-215.5308685302735	460.9085388183595	223.9245758056641	-215.3549652099611	402.6047668457032	360.6692504882813	-162.9093475341797	391.1741333007814	297.0352783203126	-258.6968994140626	65.86460113525392	296.2878112792969	-244.4698791503907	82.10250854492189	206.2849273681641	-306.7498779296876	21.76111221313477	243.1504669189453	-110.3836517333985	23.68541336059571	209.5199127197266	-98.22216033935553	38.5125961303711	265.1442260742188	-141.6361999511719	21.68924140930176	322.0271606445313	-263.538055419922	1484.886596679688	241.1208190917969	-329.4022827148439	1270.299926757813	244.8609313964844	-102.9927520751954	1171.646606445313	223.4435729980469	-140.9991760253907	1398.531494140625	230.6309356689453	-344.3464355468751	1307.751953125	168.4783477783203	-303.0670776367188	1434.219970703125	134.0372467041016	-274.5626525878907	1427.1962890625	68.95653533935545	-227.6922607421876	1441.28466796875	53.43455123901366	-275.7355346679688	1103.670043945313	0.8954859971999787	-295.0809020996094	1105.146240234375	66.57967376708982	-296.0778198242188	1075.429809570313	38.79008865356442	-59.66458892822267	959.1948242187502	18.77065849304199	-108.3752517700196	926.7646484375002	-22.51861572265627	10.03101921081543	903.3262939453127	6.950488090515139	-70.53350067138673	850.2929687500002	-22.87176704406739	-336.2052001953126	1304.977294921875	320.7925415039062	-291.8603820800782	1433.637084960938	343.6847839355469	-247.1637573242189	1436.672241210938	403.5621032714844	-207.7869415283204	1451.371459960938	407.1977844238282	-258.2046813964845	1125.67919921875	481.0415649414063	-293.1929016113282	1123.271118164063	412.3600463867188	-297.2481384277345	1103.282836914063	450.5346069335938	-178.2008209228516	881.9099731445315	482.5491943359376	-241.5338287353517	888.915710449219	516.4071044921876	-162.0046539306641	789.8728637695315	511.2763671875001	-262.4742126464845	806.3372192382815	511.2376098632813	
73	0.72	-95.99554443359378	944.5274047851565	114.566162109375	-297.1509094238282	1001.095886230469	206.0380401611328	-295.6432495117189	1001.12109375	301.9028930664062	-86.36228179931646	951.3428955078127	346.9454650878907	-184.6590728759766	876.8825683593752	42.7643356323242	-23.07125091552735	494.0077209472657	70.49526977539064	-7.553675174713161	477.6020507812501	204.6998443603516	-61.6797561645508	447.7183532714845	71.13656616210938	-6.3185968399048	412.157684326172	110.0605392456055	-258.5046081542969	162.2221832275391	122.6435012817383	-199.8658142089845	157.5731048583985	199.9567413330078	-304.2261657714844	136.7170562744141	176.9261169433594	-137.7573699951172	41.9499740600586	175.3874664306641	-130.9740142822266	57.19121551513673	120.1578063964844	-175.7703399658203	58.75949478149415	79.75315093994139	-187.9807281494141	872.911560058594	442.7253723144532	-184.4210357666016	461.342010498047	359.6058349609376	-209.0077056884766	461.0084533691407	224.4526519775391	-210.9250488281251	402.2419433593751	361.0613098144532	-158.1916198730469	390.0787963867189	297.8100280761719	-258.461151123047	66.00317382812501	296.2072143554688	-243.8735961914063	82.2934036254883	206.2746734619141	-306.7509765625001	22.19571495056153	243.0391998291016	-110.2674026489258	23.27872276306153	209.6060638427735	-97.78913879394537	37.85752487182618	265.2631225585938	-141.6943817138672	21.1812744140625	322.2811584472657	-246.6786651611329	1484.287719726563	241.5970153808594	-312.9159545898439	1269.8681640625	246.0760192871094	-86.81866455078129	1171.465576171875	224.0636444091797	-124.4234619140626	1397.873901367188	230.915756225586	-327.9578247070313	1307.312255859375	169.818115234375	-286.1958312988282	1433.744140625	134.8174743652344	-257.7484130859376	1426.552368164063	69.68740081787108	-210.8743743896485	1440.177001953125	53.85839843749999	-266.8123474121094	1104.102172851563	1.884893059730498	-285.5305175781251	1106.150146484375	67.58132934570311	-287.8754577636719	1076.76953125	39.85097885131833	-58.70573806762697	947.8013916015627	17.10261344909668	-109.6783905029297	918.6193847656252	-24.03417396545412	7.671152591705323	888.5893554687502	3.684534549713137	-76.0078811645508	840.348083496094	-25.83841896057131	-319.4144287109376	1305.033813476563	322.6768188476562	-274.8425903320314	1433.296630859375	344.6091613769531	-229.9236907958986	1436.47509765625	404.3376464843751	-190.6331024169923	1451.270263671875	407.5367431640626	-235.1455535888673	1125.002319335938	483.9881286621094	-271.1780395507814	1121.7724609375	415.8206787109376	-274.312225341797	1101.065673828125	454.2122192382813	-145.5892333984376	884.4328613281252	482.5367126464845	-208.4189300537111	888.7353515625002	517.7619018554689	-124.9472808837891	793.2073364257815	510.4659423828126	-225.893768310547	805.3128051757815	512.5644531250001	
74	0.73	-78.86677551269534	944.2922363281252	116.2173919677735	-280.8802795410157	1000.354858398438	205.4241943359375	-279.9332580566407	1000.588989257813	301.3741455078125	-71.07919311523443	949.9471435546877	348.0213012695313	-166.3932647705078	876.3785400390627	42.81383895874022	1.334425926208487	496.3930053710939	72.52523040771486	17.52111244201658	480.9067993164064	206.2910308837891	-35.52162551879884	447.9714965820314	72.96365356445314	21.67332458496093	415.2275390625001	111.6281967163086	-213.983383178711	149.5791015625	122.4471969604492	-155.0527801513672	148.3792724609375	199.7781066894532	-257.8450012207032	121.0692138671875	176.6878814697266	-84.90277862548832	38.29696655273438	174.2845458984375	-79.55839538574222	54.1616897583008	119.1663436889649	-124.6216354370118	52.47592926025392	79.02515411376953	-174.5689849853516	872.072937011719	442.6523437500001	-178.6358489990235	460.5874938964845	360.1360778808594	-201.961395263672	460.9756774902345	224.8286590576172	-206.0566558837892	401.8473205566407	361.3020935058594	-153.0950164794922	388.8779296875001	298.4481201171876	-258.1451416015626	66.19268798828126	296.0458068847656	-243.1385955810548	82.50334930419923	206.1863861083985	-306.6766662597657	22.6792106628418	242.8362274169922	-110.1379852294922	22.88577651977539	209.6665649414063	-97.36190795898443	37.21771621704102	265.3652038574219	-141.7568817138672	20.72611045837403	322.5164794921876	-229.7698822021485	1483.318237304688	242.1148223876953	-296.4066162109376	1269.08837890625	247.2207946777344	-70.58539581298832	1170.8486328125	224.8007202148438	-107.7854232788087	1396.82958984375	231.254623413086	-311.5300598144532	1306.527465820313	171.1013031005859	-269.2922668457032	1432.894653320313	135.5736846923828	-240.8964385986329	1425.52392578125	70.3771286010742	-193.9751892089844	1438.683349609375	54.2823371887207	-257.8439636230469	1104.322509765625	2.955273628234832	-275.8505859375001	1106.844116210938	68.72938537597655	-279.4570312500001	1077.848266601563	41.05440521240232	-58.17603302001955	936.8801269531252	15.26680946350097	-111.3211822509766	910.9293212890627	-25.47850036621096	4.751963615417481	874.5952148437502	0.2039956003427512	-81.7655715942383	831.0855102539065	-28.59708213806154	-302.5538024902345	1304.573120117188	324.3133544921875	-257.7639770507814	1432.561889648438	345.553955078125	-212.634246826172	1435.853515625	405.1533203125001	-173.4271697998048	1450.745971679688	407.923797607422	-212.1478881835939	1124.053588867188	487.0014953613282	-249.1044158935548	1119.895263671875	419.3452453613282	-251.2972564697267	1098.546508789063	457.9331970214844	-112.9384384155274	887.1960449218752	482.5033569335939	-175.1185302734376	888.744812011719	518.9943237304689	-87.83747863769538	797.028015136719	509.5168457031251	-189.0083618164063	804.5979614257815	513.6166992187501	
75	0.74	-61.56781387329104	943.388854980469	118.0587005615235	-264.5708312988282	999.059020996094	204.3668212890625	-264.3180236816407	999.5361938476565	300.3964233398438	-55.93179321289068	948.1702880859377	349.2725219726563	-147.6201934814453	875.4003906250002	42.74047470092772	24.7965030670166	498.0654907226564	74.63671112060548	41.47955703735349	483.3326721191407	207.9865417480469	-10.09467220306398	447.5121154785157	74.80728912353517	48.73915863037109	417.8339843750001	113.2869644165039	-168.4105377197266	137.2552947998047	122.1557312011719	-109.422462463379	139.6577911376953	199.5102691650391	-210.0313720703126	105.8917083740235	176.3933258056641	-31.61112022399905	35.75397491455079	173.0325622558594	-27.85324287414553	52.02347564697267	117.9890747070313	-73.01300811767581	47.06218338012696	78.15340423583984	-161.456283569336	871.0256347656252	442.492401123047	-172.393768310547	459.7381591796876	360.4630126953126	-194.4165802001954	460.7896118164064	225.0333557128907	-200.761688232422	401.4212341308595	361.3728637695313	-147.6313476562501	387.5659179687501	298.9257812500001	-257.7518920898439	66.44625091552736	295.7889099121094	-242.2712707519532	82.73928833007814	205.9987945556641	-306.5182495117189	23.2331771850586	242.5261688232422	-109.9959411621094	22.54554557800293	209.7001647949219	-96.95591735839849	36.63201904296876	265.4511718750001	-141.8263702392579	20.36157417297364	322.7174377441407	-212.8086242675782	1482.001953125	242.6810150146485	-279.872528076172	1267.981567382813	248.2872772216797	-54.28345870971684	1169.768676757813	225.6288146972657	-91.0734024047852	1395.415283203125	231.6427917480469	-295.0631408691407	1305.401123046875	172.3456726074219	-252.378402709961	1431.684204101563	136.326416015625	-224.0509338378907	1424.127197265625	71.04981994628905	-177.0507354736328	1436.839111328125	54.71078491210937	-248.7820434570313	1104.328857421875	4.113631248474092	-266.0004882812501	1107.21728515625	70.02504730224608	-270.7745361328126	1078.65869140625	42.40549087524411	-57.97601318359376	926.4744262695315	13.2783613204956	-113.200309753418	903.712097167969	-26.81203460693362	1.387944221496583	861.3731079101565	-3.448354959487916	-87.70310974121095	822.5078125000002	-31.07507514953615	-285.6299133300782	1303.609985351563	325.6916198730469	-240.6173248291016	1431.454345703125	346.5246276855469	-195.2837677001954	1434.81494140625	406.0116271972657	-156.1494750976563	1449.804077148438	408.3627319335939	-189.211410522461	1122.832885742188	490.0556945800782	-226.9829711914064	1117.628051757813	422.9094238281251	-228.205780029297	1095.741577148438	461.6675109863282	-80.33184051513679	890.2004394531252	482.4475097656251	-141.7110595703126	888.9580078125002	520.1130371093751	-50.77844619750984	801.3491210937502	508.4422607421876	-151.9151000976563	804.2235107421877	514.4207763671876	
